HIERARCHY
ROOT Hips
{
  OFFSET -33.9132 29.2015 117.021
  CHANNELS 6 Xposition Yposition Zposition Zrotation Xrotation Yrotation
  JOINT LeftUpLeg
  {
    OFFSET 8.64259 1.95398 -2.38835
    CHANNELS 3 Zrotation Xrotation Yrotation
    JOINT LeftLeg
    {
      OFFSET 43.7702 0 0
      CHANNELS 3 Zrotation Xrotation Yrotation
      JOINT LeftFoot
      {
        OFFSET 40.6238 0 0
        CHANNELS 3 Zrotation Xrotation Yrotation
        JOINT LeftToeBase
        {
          OFFSET 12.7242 0 0
          CHANNELS 3 Zrotation Xrotation Yrotation
          End Site
          {
            OFFSET 0 0 0
          }
        }
      }
    }
  }
  JOINT RightUpLeg
  {
    OFFSET -8.2249 1.95398 -2.59336
    CHANNELS 3 Zrotation Xrotation Yrotation
    JOINT RightLeg
    {
      OFFSET 43.5653 0 0
      CHANNELS 3 Zrotation Xrotation Yrotation
      JOINT RightFoot
      {
        OFFSET 40.6238 0 0
        CHANNELS 3 Zrotation Xrotation Yrotation
        JOINT RightToeBase
        {
          OFFSET 12.7242 0 0
          CHANNELS 3 Zrotation Xrotation Yrotation
          End Site
          {
            OFFSET 0 0 0
          }
        }
      }
    }
  }
  JOINT Spine
  {
    OFFSET 0.165834 0.87714 6.61349
    CHANNELS 3 Zrotation Xrotation Yrotation
    JOINT Spine1
    {
      OFFSET 7.38963 1.71661e-005 0
      CHANNELS 3 Zrotation Xrotation Yrotation
      JOINT Spine2
      {
        OFFSET 11.9445 1.14441e-005 0
        CHANNELS 3 Zrotation Xrotation Yrotation
        JOINT Spine3
        {
          OFFSET 14.7254 4.19617e-005 0
          CHANNELS 3 Zrotation Xrotation Yrotation
          JOINT Spine4
          {
            OFFSET 10.9679 0 0
            CHANNELS 3 Zrotation Xrotation Yrotation
            JOINT RightShoulder
            {
              OFFSET 2.46616 -1.6653 3.69651
              CHANNELS 3 Zrotation Xrotation Yrotation
              JOINT RightArm
              {
                OFFSET 13.0012 0 0
                CHANNELS 3 Zrotation Xrotation Yrotation
                JOINT RightForeArm
                {
                  OFFSET 28.7848 1.62311e-005 0
                  CHANNELS 3 Zrotation Xrotation Yrotation
                  JOINT RightHand
                  {
                    OFFSET 26.5688 1.62095e-005 0
                    CHANNELS 3 Zrotation Xrotation Yrotation
                    End Site
                    {
                      OFFSET 0 0 0
                    }
                  }
                }
              }
            }
            JOINT LeftShoulder
            {
              OFFSET 2.38034 -1.29275 -3.7523
              CHANNELS 3 Zrotation Xrotation Yrotation
              JOINT LeftArm
              {
                OFFSET 16.3182 6.07031e-005 0
                CHANNELS 3 Zrotation Xrotation Yrotation
                JOINT LeftForeArm
                {
                  OFFSET 27.0901 0 0
                  CHANNELS 3 Zrotation Xrotation Yrotation
                  JOINT LeftHand
                  {
                    OFFSET 24.5451 1.51738e-005 0
                    CHANNELS 3 Zrotation Xrotation Yrotation
                    End Site
                    {
                      OFFSET 0 0 0
                    }
                  }
                }
              }
            }
            JOINT Neck
            {
              OFFSET 5.0226 -0.0266342 0
              CHANNELS 3 Zrotation Xrotation Yrotation
              JOINT Head
              {
                OFFSET 6.69364 2.86102e-005 0
                CHANNELS 3 Zrotation Xrotation Yrotation
                End Site
                {
                  OFFSET 0 0 0
                }
              }
            }
          }
        }
      }
    }
  }
}
MOTION
Frames:	12
Frame Time:	0.0416667
24.5165 101.058 12.7077 -157.445 -81.028 -158.376 -172.787 -4.6948 90.9123 -13.1014 -2.38169 -0.509682 70.4003 6.17868 -4.21077 19.6391 -9.75295 9.87269 172.767 -3.24717 87.3948 -15.4047 -10.4323 -1.29372 67.1249 -4.71052 0.659319 28.6462 -0.461849 2.1173 0.309461 7.62428 -90.0429 11.6258 0.595492 -0.147305 -0.0449852 0.588439 -0.173386 -22.5812 0.612235 0.0384717 -2.56859 0.612246 0.0384873 91.0735 -28.2686 -105.251 52.0121 3.4901 -6.31228 -5.39545 -43.3788 -5.50731 -15.3168 1.51506 -17.0084 -87.099 -48.2266 82.7778 -27.1213 -8.70218 -13.3576 -11.5522 23.7368 -0.0210819 10.0873 -1.04639 -14.4365 4.03851 -1.55601 -1.57733 -4.2996 -1.28813 2.3191 
24.3283 101.05 12.8276 -160.185 -81.0937 -161.428 -173.039 -5.1736 90.6329 -12.5216 -2.24374 -0.326761 70.1752 6.34025 -3.61822 19.6011 -8.91603 8.3728 172.347 -3.30884 87.0141 -15.7535 -12.1776 -1.11906 66.9491 -4.80926 -0.954334 28.1766 -0.456193 2.91661 0.314898 7.60818 -90.0992 11.6582 0.57991 -0.258097 -0.0126801 0.567991 -0.283379 -22.5488 0.630669 -0.0718665 -2.5362 0.630663 -0.0718781 91.5995 -27.2746 -104.532 52.6818 3.33502 -5.89389 -5.41244 -43.6165 -5.51761 -15.8143 1.44433 -16.1675 -87.6547 -49.2222 82.1045 -26.2762 -9.59999 -12.167 -11.1307 25.8168 -0.0214381 5.95979 -0.848797 -18.1392 3.56111 -1.6795 -0.642619 -4.35838 -1.57255 1.95536 
24.0113 101.083 13.0393 -161.257 -81.157 -162.532 -173.258 -5.64399 90.648 -11.8701 -2.29537 -0.000927954 69.8198 6.07518 -3.91554 19.774 -9.04863 8.78784 172.185 -3.5476 87.0562 -15.7075 -11.9586 -0.911185 67.1367 -4.8572 -0.820302 27.9093 -0.360102 2.9897 0.3367 7.60627 -90.0774 11.662 0.633499 -0.220287 -0.00881255 0.623188 -0.247972 -22.5452 0.670414 -0.0197068 -2.53252 0.670413 -0.0197083 91.6121 -27.6524 -104.368 51.9768 3.68816 -5.77995 -5.38954 -43.2936 -5.50322 -15.3289 1.64669 -18.0892 -87.6293 -48.4347 82.0024 -25.832 -8.37333 -11.6381 -11.8442 24.1575 -0.0211507 8.31605 -0.871122 -14.7763 3.79127 -1.69537 -1.23205 -4.82375 -1.49207 1.88979 
23.6879 101.072 13.113 -161.918 -81.3047 -163.243 -173.251 -5.30234 90.7456 -12.1063 -1.87391 0.0671804 69.5774 5.9294 -3.77983 20.1191 -9.17178 9.37371 172.296 -3.60811 87.2379 -15.5748 -11.689 -0.911596 67.2273 -4.97774 -0.845138 27.9616 -0.392862 3.03107 0.309967 7.57516 -90.1125 11.7244 0.563771 -0.283485 0.0535126 0.550749 -0.308031 -22.4826 0.622902 -0.10094 -2.46991 0.622903 -0.100945 91.5418 -27.335 -104.631 51.7952 3.81114 -5.65448 -5.52029 -45.0836 -5.58444 -15.9603 1.66973 -17.6479 -87.7544 -49.2322 81.9551 -25.6355 -9.46843 -10.8841 -11.4411 24.8303 -0.0212642 6.99208 -0.727887 -15.1869 3.66089 -1.59273 -0.724215 -4.54166 -1.47171 1.7079 
23.4801 101.059 13.0949 -165.708 -81.3132 -167.149 -173.122 -5.48414 90.9449 -12.1165 -1.38845 -0.0214757 69.7271 6.00276 -3.96634 20.5385 -8.79312 9.15401 172.069 -3.69818 87.1494 -15.7552 -11.2591 -0.69474 67.396 -5.0913 -0.851041 27.8605 -0.438208 3.38285 0.261328 7.59594 -90.1089 11.6826 0.468739 -0.266093 0.0117314 0.456578 -0.286477 -22.524 0.527038 -0.112921 -2.5114 0.527042 -0.112922 91.6438 -27.341 -104.416 52.0253 3.59666 -5.98541 -5.37125 -43.0379 -5.49258 -16.1814 1.65871 -17.3837 -87.798 -49.2421 81.8913 -26.1174 -10.0245 -10.5451 -11.0887 26.2056 -0.0215092 6.14505 -0.596356 -15.0327 3.49737 -1.74746 -0.969561 -3.97014 -1.57463 1.66513 
23.3231 101.071 13.1992 -166.031 -81.0897 -167.655 -172.989 -6.06026 90.995 -11.7235 -1.25274 -0.144079 69.617 6.02588 -3.99377 19.9725 -9.04566 8.99422 171.951 -3.90392 87.0044 -15.9343 -11.3339 -0.706605 67.583 -5.13231 -0.816119 27.9667 -0.446663 3.23784 0.267255 7.60966 -90.0949 11.6551 0.487136 -0.24001 -0.0157618 0.476104 -0.261219 -22.5516 0.536746 -0.0824972 -2.53897 0.536746 -0.0824991 91.5952 -27.1649 -104.581 52.2545 3.5409 -5.85197 -5.36272 -42.9145 -5.48724 -16.7586 1.744 -17.5353 -87.7633 -49.2666 81.9483 -26.5101 -9.79296 -10.3118 -11.1014 26.9903 -0.0216573 7.1173 -0.646154 -14.2895 3.62802 -1.84079 -0.8247 -4.4665 -1.69525 1.50392 
23.2106 101.045 13.2244 -166.302 -81.3104 -167.755 -173.003 -5.3831 91.1444 -12.3155 -1.17774 -0.00622087 69.761 6.06384 -4.10498 19.9169 -9.34418 9.4584 172.202 -3.86664 87.31 -15.6498 -11.1823 -0.742878 67.2207 -4.86035 -0.469296 28.8845 -0.710749 2.70804 0.258361 7.58384 -90.1136 11.7069 0.460581 -0.274584 0.03601 0.448064 -0.294596 -22.4997 0.521817 -0.12346 -2.4871 0.521819 -0.123463 91.5357 -27.3773 -104.627 52.2981 3.4955 -5.92691 -5.3432 -42.6333 -5.47422 -17.7733 1.89722 -17.8205 -87.652 -49.0405 82.0766 -26.6811 -10.0185 -10.6619 -11.1241 24.6527 -0.0212338 5.38562 -0.637042 -16.4864 3.4543 -1.89057 -1.06146 -4.4476 -1.70606 1.54365 
23.1795 101.041 13.2048 -167.17 -81.4233 -168.4 -172.777 -5.09524 91.4959 -12.5451 -0.782908 -0.122354 69.7389 6.05693 -4.08087 20.5017 -8.83019 9.17774 172.411 -3.87218 87.6481 -15.6048 -10.7657 -0.746109 67.2986 -4.94074 -0.593746 28.3963 -0.513265 2.76285 0.24207 7.56206 -90.1429 11.7504 0.414412 -0.328541 0.0794476 0.399541 -0.34647 -22.4561 0.49398 -0.188809 -2.44346 0.493987 -0.188808 91.6389 -27.4287 -104.393 52.6137 3.33467 -5.98514 -5.26308 -41.465 -5.4285 -18.0835 1.92046 -17.7227 -87.7375 -48.9541 81.9313 -26.3347 -9.636 -10.6164 -11.3454 23.3712 -0.0210233 5.42295 -0.725616 -17.3376 3.34615 -1.89408 -1.14074 -4.48612 -1.69966 1.64866 
23.3372 101.08 13.2421 -168.671 -80.9269 -169.976 -172.596 -5.69397 91.5251 -12.5567 -0.600348 -0.27947 69.9533 6.1109 -3.97754 20.1113 -8.83379 8.76802 172.216 -4.51416 87.4227 -15.4575 -10.7228 -0.775735 67.4301 -5.10443 -0.839488 27.7126 -0.338752 3.23782 0.246948 7.62382 -90.1407 11.6268 0.425303 -0.324596 -0.0441333 0.410607 -0.343009 -22.5797 0.503197 -0.18177 -2.56707 0.503202 -0.181769 91.766 -27.3094 -104.173 52.2312 3.54667 -5.86516 -5.41956 -43.7165 -5.52209 -17.0359 1.87153 -18.1985 -87.775 -49.3787 81.9506 -25.7183 -9.7313 -11.0406 -11.2891 23.609 -0.0210612 6.38651 -0.78201 -16.4089 3.55318 -1.80283 -0.873076 -4.7624 -1.65282 1.4149 
23.4974 101.06 13.0986 -169.605 -81.0978 -170.94 -172.753 -5.33628 91.3222 -12.724 -0.363748 -0.243913 69.7906 6.0749 -3.831 20.4436 -9.00791 9.43285 171.949 -4.19289 87.1782 -15.5486 -10.8224 -0.565956 67.3415 -5.03004 -0.642263 27.9811 -0.39615 3.01103 0.230063 7.60202 -90.1411 11.6703 0.391482 -0.322141 -0.000592502 0.376914 -0.339066 -22.5361 0.470187 -0.189596 -2.52343 0.470194 -0.189594 91.6391 -27.1625 -104.491 51.8622 3.8056 -5.58573 -5.59012 -45.9985 -5.63013 -16.3776 1.75855 -17.9463 -87.7461 -49.7617 82.0628 -24.9585 -9.36183 -11.4106 -11.4225 24.4232 -0.021195 6.71438 -0.822307 -16.3959 3.43541 -1.58164 -0.548583 -4.63452 -1.48743 1.30438 
23.6157 101.065 12.9219 -169.893 -81.1155 -171.006 -172.813 -5.00786 91.4002 -13.1059 -0.439241 -0.122099 69.9571 6.02803 -3.96803 19.5329 -9.27359 8.92656 172.289 -4.22788 87.4894 -15.2468 -10.5825 -0.73082 67.0294 -4.9174 -0.712926 28.4034 -0.53557 2.84475 0.269359 7.59554 -90.145 11.6835 0.467791 -0.33803 0.0125674 0.452454 -0.358287 -22.5231 0.547746 -0.181809 -2.51048 0.547751 -0.181807 91.737 -27.466 -104.177 51.7519 3.90494 -5.43546 -5.5637 -45.6572 -5.61325 -16.0562 1.74885 -18.1431 -87.9357 -49.4472 81.7204 -24.3466 -8.18221 -11.7667 -11.9671 24.3813 -0.021188 5.95684 -0.726952 -16.4689 3.35375 -1.82191 -1.36384 -4.51527 -1.59972 2.20599 
23.851 101.111 12.8572 -171.127 -80.4744 -172.513 -172.968 -6.00453 91.0039 -12.413 -0.532741 -0.0449442 69.7506 6.06578 -3.8992 19.8589 -8.98904 8.77365 171.883 -4.607 86.9565 -15.6957 -10.8965 -0.746136 67.1233 -4.90224 -0.981166 28.1143 -0.496315 3.18378 0.245617 7.68378 -90.115 11.5068 0.434938 -0.273488 -0.164096 0.422477 -0.292377 -22.6998 0.497018 -0.130128 -2.68713 0.497024 -0.130123 91.5991 -27.4592 -104.466 52.0091 3.72286 -5.63801 -5.327 -42.4015 -5.46529 -15.8516 1.65989 -17.6577 -87.9897 -49.6546 81.6765 -23.0808 -6.7389 -12.0604 -12.7201 24.0987 -0.021141 6.44085 -0.74434 -15.9398 3.36204 -1.82472 -1.23717 -4.43494 -1.62133 2.16083 
